# xmcd CD database file
#
# Track frame offsets:
#	150
#	34790
#	62169
#	82605
#	102197
#	119011
#	133016
#	170019
#	196182
#	209703
#	224852
#	247234
#	267810
#	307523
#
# Disc length: 4324 seconds
#
# Revision: 2
# Processed by: cddbd v1.5.2PL0 Copyright (c) Steve Scherf et al.
# Submitted via: CDex 1.51
#
DISCID=d010e20e
DTITLE=Peter Green - The Guitar Player
DYEAR=2001
DGENRE=Blues Rock
TTITLE0=A Fool No More
TTITLE1=Just Another Guy
TTITLE2=Six String Guitar
TTITLE3=Rubbing My Eyes
TTITLE4=Long Way From Home
TTITLE5=I Like A Hot Tomato
TTITLE6=Funky Jam
TTITLE7=Gotta See Her Tonight
TTITLE8=Born On The Wild Side
TTITLE9=Bullet In The Sky
TTITLE10=Carry My Love
TTITLE11=Bad Bad Feeling
TTITLE12=White Sky
TTITLE13=Touch My Spirit
EXTD=YEAR: 2001
EXTT0=
EXTT1=
EXTT2=
EXTT3=
EXTT4=
EXTT5=
EXTT6=
EXTT7=
EXTT8=
EXTT9=
EXTT10=
EXTT11=
EXTT12=
EXTT13=
PLAYORDER=
